<?xml version="1.0" standalone="no"?>
<!DOCTYPE svg>
<svg version="1.0" xmlns="http://www.w3.org/2000/svg"
 width="200.000000pt" height="200.000000pt" viewBox="0 0 200.000000 200.000000"
 preserveAspectRatio="xMidYMid meet">

<g transform="translate(0.000000,200.000000) scale(0.100000,-0.100000)"
fill="white" stroke="none">
<path d="M310 1022 c0 -778 2 -880 16 -900 18 -26 46 -28 68 -6 14 14 16 103
16 835 0 452 4 819 9 819 12 0 76 -52 105 -87 42 -50 92 -166 111 -258 15 -71
23 -90 47 -111 l30 -24 274 0 c301 0 322 3 342 57 5 15 17 59 26 98 31 135 95
238 191 307 l40 29 5 -833 5 -833 29 -10 c24 -8 31 -6 47 14 18 22 19 54 19
903 l0 881 -52 -7 c-189 -24 -332 -199 -392 -478 l-6 -28 -248 0 -248 0 -22
92 c-34 137 -82 230 -161 309 -58 58 -76 70 -135 88 -37 12 -79 21 -92 21
l-24 0 0 -878z"/>
<path d="M810 1110 c-27 -27 -25 -56 5 -85 27 -28 37 -30 68 -14 29 16 37 28
37 60 0 54 -70 79 -110 39z"/>
<path d="M1097 1112 c-18 -19 -22 -59 -9 -78 9 -13 46 -34 62 -34 19 0 60 48
60 70 0 50 -79 80 -113 42z"/>
<path d="M862 934 c-40 -28 -29 -72 40 -152 81 -95 -19 -225 -134 -174 -54 24
-75 47 -96 107 -23 64 -46 78 -73 46 -15 -18 -18 -32 -13 -55 19 -90 84 -157
176 -183 l57 -16 -2 -106 c-1 -93 1 -112 22 -153 39 -80 121 -120 203 -97 61
16 93 42 119 97 21 41 23 60 22 153 l-2 106 57 16 c31 9 74 30 95 47 69 58
102 160 64 197 -25 25 -48 7 -69 -53 -21 -58 -62 -98 -116 -115 -107 -31 -187
98 -114 183 47 55 62 81 62 110 0 47 -30 58 -160 58 -88 0 -121 -4 -138 -16z
m100 -450 c2 -60 7 -79 21 -88 12 -8 22 -8 35 0 13 9 18 28 20 88 2 42 5 76 8
76 2 0 16 -7 29 -16 24 -16 25 -20 25 -136 0 -119 0 -120 -29 -149 -41 -41
-101 -41 -142 0 -29 29 -29 30 -29 149 0 113 1 120 23 135 12 9 25 16 29 16 4
1 8 -33 10 -75z"/>
</g>
</svg>
